<?xml version="1.0" standalone="no"?>
<!DOCTYPE svg PUBLIC "-//W3C//DTD SVG 20010904//EN"
 "http://www.w3.org/TR/2001/REC-SVG-20010904/DTD/svg10.dtd">
<svg version="1.0" xmlns="http://www.w3.org/2000/svg"
 width="225.000000pt" height="225.000000pt" viewBox="0 0 225.000000 225.000000"
 preserveAspectRatio="xMidYMid meet">
<metadata>
Created by potrace 1.16, written by Peter Selinger 2001-2019
</metadata>
<g transform="translate(0.000000,225.000000) scale(0.100000,-0.100000)"
fill="#000000" stroke="none">
<path d="M540 1278 c-139 -497 -260 -923 -267 -948 -11 -38 -22 -50 -66 -77
-59 -37 -110 -43 -159 -17 -19 10 -34 12 -40 6 -14 -14 64 -42 115 -42 27 0
54 8 76 23 66 43 76 47 121 47 32 0 66 -10 114 -35 95 -48 145 -48 212 0 63
45 119 47 202 8 84 -39 136 -36 204 10 38 27 64 37 91 37 l37 0 0 -110 0 -110
535 0 535 0 0 115 0 115 -255 0 -256 0 20 28 c12 16 43 119 76 252 30 124 67
262 80 306 14 45 30 128 35 185 6 57 20 162 30 233 28 181 27 199 -12 241 -31
34 -39 37 -157 56 -127 21 -355 24 -393 5 -14 -6 -20 -2 -29 20 -61 162 -185
310 -356 426 -64 42 -220 128 -235 128 -2 0 -118 -406 -258 -902z m377 810
c251 -139 420 -339 469 -556 16 -71 16 -74 -3 -95 -30 -33 -34 -55 -19 -91 27
-64 205 -156 303 -156 l35 0 -7 -75 c-7 -75 -7 -76 -62 -128 -65 -61 -149
-184 -193 -282 -45 -99 -110 -292 -110 -324 0 -27 28 -61 60 -75 8 -3 -54 -4
-139 -1 l-155 5 -52 -36 c-63 -43 -106 -47 -175 -16 -98 45 -176 46 -222 4
-59 -53 -111 -55 -210 -7 -40 19 -90 36 -112 39 -22 2 -39 8 -38 12 1 8 227
814 368 1314 35 124 80 284 100 355 20 72 38 138 41 148 3 9 10 17 17 17 6 0
53 -23 104 -52z m713 -614 c48 -8 91 -19 98 -23 8 -5 9 -21 4 -51 -6 -38 -11
-45 -33 -48 -37 -4 -132 34 -184 74 -25 19 -54 34 -65 34 -11 0 -20 7 -20 15
0 20 88 20 200 -1z m19 -883 c-27 -107 -49 -207 -49 -222 0 -16 9 -38 20 -49
l20 -20 -102 0 -103 0 31 19 c21 13 37 34 47 63 71 202 103 283 138 341 23 38
42 67 44 65 2 -2 -19 -90 -46 -197z"/>
<path d="M1875 1915 c-110 -38 -138 -177 -50 -254 96 -84 249 -19 249 107 0
110 -97 182 -199 147z"/>
</g>
</svg>
